<svg xmlns="http://www.w3.org/2000/svg" width="114" height="24" viewBox="0 0 114 24">
<path d="M23,7v10l-3.8,2.4v-5.2l0,0l-3.7-2.4l0,0l0,0L4,18.9L1,17V7l3.7-2.4v9.6l14.9-9.4L23,7zM7.1,9.9l10.3-6.5L12,0L7.1,3.1V9.9z M15.4,14.5l-9.2,5.8L12,24l4.9-3.1v-5.5L15.4,14.5z"/>
<path d="M36,18.7V5.3h2.5v6.2l5.1-6.2h3.1l-5.6,6.6l6,6.8h-3.2l-5.4-6.1v6.1H36z"/>
<path d="M57.4,18.7H60L55.9,5.3h-3.8L48,18.7h2.6l0.9-2.8h5.1L57.4,18.7z M52.2,13.5L54,7.7l1.8,5.9H52.2z"/>
<path d="M62.7,18.7V5.3h2.5v11.1h5.8v2.4H62.7z"/>
<path d="M73.5,18.7V5.3h8.8v2.4h-6.2v2.9h5.1v2.4h-5.1v3.5h6.2v2.4H73.5z"/>
<path d="M97.3,8.3c-0.5-1.1-1.3-1.9-2.2-2.5c-1-0.6-2.1-0.9-3.5-0.9c-1.3,0-2.5,0.3-3.5,0.9c-1,0.6-1.7,1.4-2.2,2.5c-0.5,1.1-0.8,2.3-0.8,3.7c0,1.4,0.3,2.6,0.8,3.7c0.5,1.1,1.3,1.9,2.2,2.5c1,0.6,2.1,0.9,3.5,0.9c1.3,0,2.5-0.3,3.5-0.9c1-0.6,1.7-1.4,2.2-2.5c0.5-1.1,0.8-2.3,0.8-3.7C98.1,10.6,97.9,9.4,97.3,8.3z M95,14.4c-0.3,0.7-0.7,1.2-1.3,1.6c-0.6,0.4-1.3,0.6-2.1,0.6c-0.9,0-1.6-0.2-2.1-0.6c-0.6-0.4-1-0.9-1.3-1.6c-0.3-0.7-0.4-1.5-0.4-2.4c0-0.9,0.1-1.7,0.4-2.4c0.3-0.7,0.7-1.2,1.3-1.6c0.6-0.4,1.3-0.6,2.1-0.6c0.9,0,1.6,0.2,2.1,0.6c0.6,0.4,1,0.9,1.3,1.6c0.3,0.7,0.4,1.5,0.4,2.4C95.4,12.9,95.3,13.7,95,14.4z"/>
<path d="M99.5,18.7v-0.3l6.4-10.8H100V5.3h10.3v0.3L104,16.3h6.2v2.4H99.5z"/>
</svg>